<svg width="320" height="240" viewBox="0 0 320 240" fill="none" xmlns="http://www.w3.org/2000/svg">
<g clip-path="url(#clip0_3_18)">
<g filter="url(#filter0_d_3_18)">
<rect width="320" height="28" fill="white" fill-opacity="0.75" shape-rendering="crispEdges"/>
</g>
<mask id="path-2-inside-1_3_18" fill="white">
<path d="M0 172H320V240H0V172Z"/>
</mask>
<path d="M0 172H320V240H0V172Z" fill="white" fill-opacity="0.75"/>
<path d="M0 172V173H320V172V171H0V172Z" fill="black" fill-opacity="0.2" mask="url(#path-2-inside-1_3_18)"/>
<path d="M11 181V183V189.3C10.705 189.1 10.4 189 10 189C8.9 189 8 189.9 8 191C8 192.1 8.9 193 10 193C11.1 193 12 192.1 12 191V185H19V187.3C18.705 187.1 18.4 187 18 187C16.9 187 16 187.9 16 189C16 190.1 16.9 191 18 191C19.1 191 20 190.1 20 189V181H11ZM12 183H19V184H12V183Z" fill="#232629"/>
<path d="M7 201V213H20V201H7ZM9 202H19V212H9V202Z" fill="#232629"/>
<path d="M13 220C12.2044 220 11.4413 220.316 10.8787 220.879C10.3161 221.441 10 222.204 10 223C10 223.796 10.3161 224.559 10.8787 225.121C11.4413 225.684 12.2044 226 13 226C13.7956 226 14.5587 225.684 15.1213 225.121C15.6839 224.559 16 223.796 16 223C16 222.204 15.6839 221.441 15.1213 220.879C14.5587 220.316 13.7956 220 13 220ZM13 221C13.5304 221 14.0391 221.211 14.4142 221.586C14.7893 221.961 15 222.47 15 223C15 223.53 14.7893 224.039 14.4142 224.414C14.0391 224.789 13.5304 225 13 225C12.4696 225 11.9609 224.789 11.5858 224.414C11.2107 224.039 11 223.53 11 223C11 222.47 11.2107 221.961 11.5858 221.586C11.9609 221.211 12.4696 221 13 221ZM13 227C11.6739 227 10.4021 227.474 9.46445 228.318C8.52677 229.162 8 230.307 8 231.5C8.00074 231.667 8.01183 231.834 8.0332 232H17.9632C17.9859 231.834 17.9983 231.667 18.0003 231.5C18.0003 230.307 17.4735 229.162 16.5358 228.318C15.5981 227.474 14.3261 227 13 227ZM13.0003 228C13.9615 228.001 14.8903 228.305 15.6165 228.855C16.3428 229.406 16.8181 230.168 16.9554 231H9.04544C9.18275 230.168 9.65802 229.406 10.3843 228.855C11.1106 228.305 12.0391 228.001 13.0003 228Z" fill="#232629"/>
<rect x="6.5" y="160.5" width="307" height="5" rx="2.5" fill="#D2D3D5" stroke="#BDBEBF"/>
<rect x="100" y="34" width="120" height="120" fill="white" fill-opacity="0.75"/>
<rect x="100.5" y="34.5" width="119" height="119" stroke="black" stroke-opacity="0.2"/>
<path d="M149.333 72.6667V75.3333V103.333C148.179 102.468 146.776 102 145.333 102C143.565 102 141.87 102.702 140.619 103.953C139.369 105.203 138.667 106.899 138.667 108.667C138.667 110.435 139.369 112.13 140.619 113.381C141.87 114.631 143.565 115.333 145.333 115.333C147.101 115.333 148.797 114.631 150.047 113.381C151.298 112.13 152 110.435 152 108.667V83.3333H178.667V98C177.513 97.1345 176.109 96.6667 174.667 96.6667C172.899 96.6667 171.203 97.3691 169.953 98.6193C168.702 99.8695 168 101.565 168 103.333C168 105.101 168.702 106.797 169.953 108.047C171.203 109.298 172.899 110 174.667 110C176.435 110 178.13 109.298 179.381 108.047C180.631 106.797 181.333 105.101 181.333 103.333V75.3333V74V72.6667H152H149.333ZM152 75.3333H178.667V80.6667H152V75.3333Z" fill="#232629"/>
</g>
<defs>
<filter id="filter0_d_3_18" x="-4" y="-4" width="328" height="36" filterUnits="userSpaceOnUse" color-interpolation-filters="sRGB">
<feFlood flood-opacity="0" result="BackgroundImageFix"/>
<feColorMatrix in="SourceAlpha" type="matrix" values="0 0 0 0 0 0 0 0 0 0 0 0 0 0 0 0 0 0 127 0" result="hardAlpha"/>
<feOffset/>
<feGaussianBlur stdDeviation="2"/>
<feComposite in2="hardAlpha" operator="out"/>
<feColorMatrix type="matrix" values="0 0 0 0 0 0 0 0 0 0 0 0 0 0 0 0 0 0 0.25 0"/>
<feBlend mode="normal" in2="BackgroundImageFix" result="effect1_dropShadow_3_18"/>
<feBlend mode="normal" in="SourceGraphic" in2="effect1_dropShadow_3_18" result="shape"/>
</filter>
<clipPath id="clip0_3_18">
<rect width="320" height="240" fill="white"/>
</clipPath>
</defs>
</svg>
