<svg width="16" height="16" viewBox="0 0 16 16" fill="none" xmlns="http://www.w3.org/2000/svg">
<path d="M2 12V4H13V12H2ZM0 2V14H15V10H15.5C15.777 10 16 9.777 16 9.5V6.5C16 6.223 15.777 6 15.5 6H15V2H3H0ZM1 3H14V13H1V3Z" fill="#DA4453"/>
<path d="M9 8H15C15.554 8 16 8.446 16 9V15C16 15.554 15.554 16 15 16H9C8.446 16 8 15.554 8 15V9C8 8.446 8.446 8 9 8Z" fill="#DA4453"/>
<path d="M9.707 9L9 9.707L11.293 12L9 14.293L9.707 15L12 12.707L14.293 15L15 14.293L12.707 12L15 9.707L14.293 9L12 11.293L9.707 9Z" fill="white"/>
</svg>
