<svg width="16" height="16" viewBox="0 0 16 16" fill="none" xmlns="http://www.w3.org/2000/svg">
<path d="M8 2L4 6V10L8 14H9V2H8Z" fill="#FCFCFC"/>
<path d="M2 6V10H3V6H2Z" fill="#FCFCFC"/>
<path d="M10.1289 4.61523L9.79883 5.60352C10.1712 5.88248 10.4735 6.24421 10.682 6.66013C10.8904 7.07605 10.9993 7.53476 11 8C10.9993 8.46524 10.8904 8.92395 10.682 9.33987C10.4735 9.75579 10.1712 10.1175 9.79883 10.3965L10.127 11.3809C10.6994 11.0215 11.1714 10.5229 11.4989 9.93167C11.8265 9.34046 11.9989 8.67588 12 8C11.9997 7.32364 11.8279 6.65839 11.5007 6.06645C11.1735 5.47451 10.7015 4.97521 10.1289 4.61523Z" fill="#FCFCFC"/>
<path opacity="0.35" d="M9.94531 2.33203L9.77734 3.33203C10.7241 3.69209 11.5392 4.33122 12.1147 5.1648C12.6902 5.99837 12.9989 6.98707 13 8C12.9998 9.01336 12.6918 10.0028 12.1166 10.8371C11.5414 11.6714 10.7263 12.3113 9.7793 12.6719L9.94531 13.6699C11.1274 13.2648 12.1536 12.5006 12.8805 11.4842C13.6074 10.4677 13.9988 9.24963 14 8C13.9983 6.7507 13.6068 5.53307 12.8799 4.517C12.153 3.50092 11.1271 2.73708 9.94531 2.33203Z" fill="#FCFCFC"/>
</svg>
