<svg width="16" height="16" viewBox="0 0 16 16" fill="none" xmlns="http://www.w3.org/2000/svg">
<path d="M4 6.01562V10L8 14H9V11.0156L4 6.01562Z" fill="#FCFCFC"/>
<path d="M2 6V10H3V6H2Z" fill="#FCFCFC"/>
<path d="M8 2L6.00977 3.99023L9 6.97266V2H8Z" fill="#FCFCFC"/>
<path d="M2 2.70711L2.70711 2L14 13.267L13.2929 14L2 2.70711Z" fill="#DA4453"/>
<path opacity="0.35" d="M10.2715 12.3926C10.1128 12.4949 9.9485 12.5881 9.7793 12.6719L9.94531 13.6699C10.313 13.5209 10.665 13.3357 10.9961 13.1172L10.2715 12.3926Z" fill="#FCFCFC"/>
<path opacity="0.35" d="M10.1289 4.61523L9.79883 5.60352C10.1712 5.88248 10.4735 6.24421 10.682 6.66013C10.8904 7.07605 10.9993 7.53476 11 8C10.9732 8.24294 10.9168 8.48169 10.832 8.71094L11.6543 9.5332C11.8698 9.05003 11.9873 8.5289 12 8C11.9997 7.32364 11.8279 6.65839 11.5007 6.06645C11.1735 5.47451 10.7015 4.97521 10.1289 4.61523Z" fill="#FCFCFC"/>
<path opacity="0.35" d="M9.94531 2.33203L9.77734 3.33203C10.7241 3.69209 11.5392 4.33122 12.1147 5.1648C12.6902 5.99837 12.9989 6.98707 13 8C12.981 8.79468 12.7727 9.57337 12.3926 10.2715L13.123 11.002C13.6756 10.0964 13.9782 9.06058 14 8C13.9983 6.7507 13.6068 5.53307 12.8799 4.517C12.153 3.50092 11.1271 2.73708 9.94531 2.33203Z" fill="#FCFCFC"/>
</svg>
